<svg width="32" height="32" viewBox="0 0 32 32" fill="none" xmlns="http://www.w3.org/2000/svg">
<path d="M23.672 18.666C24.4671 18.6664 25.2297 18.9824 25.7919 19.5447C26.3542 20.107 26.6703 20.8695 26.6706 21.6647V22.8887C26.6708 23.6537 26.4316 24.3997 25.9866 25.022C23.9266 27.906 20.56 29.3327 16 29.3327C11.44 29.3327 8.07462 27.9033 6.01862 25.018C5.57612 24.3967 5.33842 23.6528 5.33862 22.89V21.6633C5.33933 20.8689 5.65516 20.1071 6.21683 19.5452C6.7785 18.9832 7.54013 18.6671 8.33462 18.666H23.672Z" fill="url(#paint0_linear_354_5250)"/>
<path d="M16 2.67188C16.8755 2.67187 17.7424 2.84431 18.5512 3.17934C19.36 3.51438 20.095 4.00544 20.714 4.6245C21.3331 5.24355 21.8241 5.97848 22.1592 6.78732C22.4942 7.59616 22.6666 8.46306 22.6666 9.33854C22.6666 10.214 22.4942 11.0809 22.1592 11.8898C21.8241 12.6986 21.3331 13.4335 20.714 14.0526C20.095 14.6716 19.36 15.1627 18.5512 15.4977C17.7424 15.8328 16.8755 16.0052 16 16.0052C14.2319 16.0052 12.5362 15.3028 11.2859 14.0526C10.0357 12.8023 9.33331 11.1067 9.33331 9.33854C9.33331 7.57043 10.0357 5.87474 11.2859 4.6245C12.5362 3.37425 14.2319 2.67188 16 2.67188Z" fill="url(#paint1_linear_354_5250)"/>
<defs>
<linearGradient id="paint0_linear_354_5250" x1="10.4106" y1="20.0847" x2="13.8586" y2="31.0913" gradientUnits="userSpaceOnUse">
<stop offset="0.125" stop-color="#9C6CFE"/>
<stop offset="1" stop-color="#7A41DC"/>
</linearGradient>
<linearGradient id="paint1_linear_354_5250" x1="12.5053" y1="4.44388" x2="19.3" y2="15.2945" gradientUnits="userSpaceOnUse">
<stop offset="0.125" stop-color="#9C6CFE"/>
<stop offset="1" stop-color="#7A41DC"/>
</linearGradient>
</defs>
</svg>
