<svg width="20" height="20" viewBox="0 0 20 20" fill="none" xmlns="http://www.w3.org/2000/svg">
<path d="M19.6933 11.879C19.465 11.4807 18.9542 11.3432 18.5558 11.5732L17.7417 12.0423C17.2375 11.499 16.5808 11.104 15.8342 10.934V9.99984C15.8342 9.53984 15.4617 9.16651 15.0008 9.16651C14.54 9.16651 14.1675 9.53984 14.1675 9.99984V10.934C13.4208 11.1048 12.7633 11.499 12.26 12.0423L11.4458 11.5732C11.0467 11.3432 10.5375 11.4807 10.3083 11.879C10.0783 12.2782 10.2158 12.7873 10.6142 13.0173L11.4333 13.489C11.3258 13.8373 11.2517 14.1998 11.2517 14.5832C11.2517 14.9665 11.3267 15.329 11.4333 15.6773L10.6142 16.149C10.215 16.3782 10.0775 16.8882 10.3083 17.2873C10.5392 17.689 11.0542 17.8207 11.4458 17.5932L12.26 17.124C12.7642 17.6673 13.4208 18.0623 14.1675 18.2323V19.1665C14.1675 19.6265 14.54 19.9998 15.0008 19.9998C15.4617 19.9998 15.8342 19.6265 15.8342 19.1665V18.2323C16.5808 18.0615 17.2383 17.6673 17.7417 17.124L18.5558 17.5932C18.9475 17.8207 19.4625 17.6898 19.6933 17.2873C19.9233 16.8882 19.7858 16.379 19.3875 16.149L18.5683 15.6773C18.6758 15.329 18.75 14.9665 18.75 14.5832C18.75 14.1998 18.675 13.8373 18.5683 13.489L19.3875 13.0173C19.7867 12.7882 19.9242 12.2782 19.6933 11.879ZM15 16.6665C13.8508 16.6665 12.9167 15.7315 12.9167 14.5832C12.9167 13.4348 13.8508 12.4998 15 12.4998C16.1492 12.4998 17.0833 13.4348 17.0833 14.5832C17.0833 15.7315 16.1492 16.6665 15 16.6665ZM20 8.10318V9.16651C20 9.62651 19.6275 9.99984 19.1667 9.99984C18.7058 9.99984 18.3333 9.62651 18.3333 9.16651V8.10318C18.3333 7.27068 17.9217 6.49568 17.2317 6.03068L11.3983 2.09401C10.5483 1.52068 9.45167 1.52068 8.6025 2.09401L2.76833 6.03068C2.07833 6.49568 1.66667 7.27068 1.66667 8.10318V15.8332C1.66667 17.2115 2.78833 18.3332 4.16667 18.3332H8.33333C8.79417 18.3332 9.16667 18.7065 9.16667 19.1665C9.16667 19.6265 8.79417 19.9998 8.33333 19.9998H4.16667C1.86917 19.9998 0 18.1307 0 15.8332V8.10318C0 6.71568 0.686667 5.42484 1.83583 4.64901L7.66917 0.712344C9.085 -0.242656 10.915 -0.242656 12.3308 0.712344L18.1642 4.64901C19.3133 5.42484 20 6.71568 20 8.10318Z" fill="#9E9FA2"/>
</svg>
