<svg width="20" height="20" viewBox="0 0 20 20" fill="none" xmlns="http://www.w3.org/2000/svg">
<g clip-path="url(#clip0_706_51650)">
<path d="M19.9999 5V13.4175C19.9999 15.1983 19.3065 16.8725 18.0474 18.1317L16.4224 19.7567C16.2599 19.9192 16.0465 20.0008 15.8332 20.0008C15.6199 20.0008 15.4065 19.9192 15.244 19.7567C14.9182 19.4308 14.9182 18.9042 15.244 18.5783L16.869 16.9533C17.8132 16.0092 18.3332 14.7533 18.3332 13.4175V5C18.3332 4.54083 17.959 4.16667 17.4999 4.16667C17.0407 4.16667 16.6665 4.54083 16.6665 5C16.6665 5 16.6565 11.7025 16.6557 11.7225C16.6432 12.2742 16.4565 12.8225 16.0824 13.2692L13.934 15.5058C13.7707 15.6767 13.5524 15.7617 13.3332 15.7617C13.1249 15.7617 12.9174 15.6842 12.7557 15.5292C12.424 15.21 12.4132 14.6825 12.7324 14.3508L14.8432 12.1558C14.9515 12.025 15.0024 11.8492 14.9999 11.6683C14.9999 11.6683 14.9999 11.6675 14.9999 11.6667V11.63C14.989 11.4458 14.9207 11.2583 14.7882 11.11C14.4824 10.7692 13.9565 10.74 13.6165 11.0458L10.9807 13.4717C11.4224 14.3058 11.6674 15.2417 11.6674 16.2017V19.1675C11.6674 19.6275 11.294 20.0008 10.834 20.0008C10.374 20.0008 10.0007 19.6275 10.0007 19.1675V16.2017C10.0007 15.0392 9.51069 13.9225 8.65486 13.135L6.37652 11.0383C6.04486 10.7408 5.51819 10.7683 5.21236 11.11C4.93902 11.4158 4.93152 11.8833 5.19486 12.1975L7.33652 14.4233C7.65569 14.755 7.64569 15.2825 7.31319 15.6017C6.98319 15.9208 6.45402 15.9117 6.13486 15.5783L3.95486 13.3108C3.57152 12.855 3.37736 12.3108 3.35236 11.7658C3.34819 11.7325 3.33236 5.00083 3.33236 5.00083C3.33236 4.54167 2.95819 4.1675 2.49902 4.1675C2.03986 4.1675 1.66569 4.54167 1.66569 5.00083V13.4183C1.66569 14.7542 2.18569 16.0092 3.12986 16.9542L4.75486 18.5792C5.08069 18.905 5.08069 19.4317 4.75486 19.7575C4.59236 19.92 4.37902 20.0017 4.16569 20.0017C3.95236 20.0017 3.73902 19.92 3.57652 19.7575L1.95152 18.1325C0.692357 16.8733 -0.000976562 15.1992 -0.000976562 13.4183V5C-0.000976562 3.62167 1.12069 2.5 2.49902 2.5C3.87736 2.5 4.99902 3.62167 4.99902 5V9.32167C5.83152 9.02833 6.79236 9.175 7.49569 9.80417L9.78236 11.9083C9.85486 11.975 9.91902 12.0483 9.98819 12.1183L12.4949 9.81167C13.204 9.17667 14.1665 9.02917 14.999 9.3225V5.00083C14.999 3.6225 16.1207 2.50083 17.499 2.50083C18.8774 2.50083 19.999 3.6225 19.999 5.00083L19.9999 5ZM5.83319 2.66667C5.83319 1.19583 6.95486 0 8.33319 0C8.98486 0 9.56402 0.225 9.99986 0.605833C10.4357 0.225 11.0149 0 11.6665 0C13.0449 0 14.1665 1.19667 14.1665 2.66667C14.1665 4.33667 12.4649 6.05333 11.0382 7.19833C10.7374 7.44 10.369 7.56083 9.99986 7.56083C9.63069 7.56083 9.26236 7.44 8.96069 7.1975C7.53402 6.0525 5.83319 4.33583 5.83319 2.66583V2.66667ZM7.49986 2.66667C7.49986 3.42 8.45986 4.65917 10.0049 5.89917C11.5399 4.65917 12.4999 3.42 12.4999 2.66667C12.4999 2.115 12.1257 1.66667 11.6665 1.66667C11.2824 1.66667 10.8332 1.885 10.8332 2.5C10.8332 2.96 10.4599 3.33333 9.99986 3.33333C9.53986 3.33333 9.16652 2.96 9.16652 2.5C9.16652 1.885 8.71736 1.66667 8.33319 1.66667C7.87402 1.66667 7.49986 2.11583 7.49986 2.66667Z" fill="#9E9FA2"/>
</g>
<defs>
<clipPath id="clip0_706_51650">
<rect width="20" height="20" fill="white"/>
</clipPath>
</defs>
</svg>
