<svg width="20" height="20" viewBox="0 0 20 20" fill="none" xmlns="http://www.w3.org/2000/svg">
<path d="M16.225 11.8775C16.7275 11.35 17.1933 10.6792 17.1933 10H12.8075C12.8075 10.6792 13.2733 11.35 13.7758 11.8775C11.7333 12.555 10.0008 14.8033 10.0008 17.0925C10.0008 18.695 11.3092 19.9992 12.9175 19.9992H17.0842C18.6925 19.9992 20.0008 18.695 20.0008 17.0925C20.0008 14.8025 18.2683 12.5542 16.2258 11.8775H16.225ZM17.0833 18.3333H12.9167C12.2275 18.3333 11.6667 17.7775 11.6667 17.0933C11.6667 15.2667 13.38 13.3333 15 13.3333C16.62 13.3333 18.3333 15.2658 18.3333 17.0933C18.3333 17.7775 17.7725 18.3333 17.0833 18.3333ZM17.5 1.66667H15V0H13.3333V1.66667H6.66667V0H5V1.66667H2.5C1.12167 1.66667 0 2.78833 0 4.16667V20H9.38083C8.98167 19.5175 8.68417 18.9508 8.50917 18.3333H1.66667V8.33333H20V4.16667C20 2.78833 18.8783 1.66667 17.5 1.66667ZM18.3333 6.66667H1.66667V4.16667C1.66667 3.7075 2.04083 3.33333 2.5 3.33333H17.5C17.96 3.33333 18.3333 3.7075 18.3333 4.16667V6.66667Z" fill="#9E9FA2"/>
</svg>
