<svg width="20" height="20" viewBox="0 0 20 20" fill="none" xmlns="http://www.w3.org/2000/svg">
<g clip-path="url(#clip0_706_51657)">
<path d="M13.3333 20H6.66667C4.36917 20 2.5 18.1308 2.5 15.8333V5.83333C2.5 3.53583 4.36917 1.66667 6.66667 1.66667H6.80917C7.15333 0.696667 8.08 0 9.16667 0H10.8333C11.92 0 12.8467 0.696667 13.1908 1.66667H13.3333C15.6308 1.66667 17.5 3.53583 17.5 5.83333V15.8333C17.5 18.1308 15.6308 20 13.3333 20ZM6.66667 3.33333C5.28833 3.33333 4.16667 4.455 4.16667 5.83333V15.8333C4.16667 17.2117 5.28833 18.3333 6.66667 18.3333H13.3333C14.7117 18.3333 15.8333 17.2117 15.8333 15.8333V5.83333C15.8333 4.455 14.7117 3.33333 13.3333 3.33333H12.5C12.04 3.33333 11.6667 2.96 11.6667 2.5C11.6667 2.04 11.2925 1.66667 10.8333 1.66667H9.16667C8.7075 1.66667 8.33333 2.04083 8.33333 2.5C8.33333 2.95917 7.96 3.33333 7.5 3.33333H6.66667ZM10 10.8333C11.1508 10.8333 12.0833 9.90083 12.0833 8.75C12.0833 7.59917 11.1508 6.66667 10 6.66667C8.84917 6.66667 7.91667 7.59917 7.91667 8.75C7.91667 9.90083 8.84917 10.8333 10 10.8333ZM13.5408 15.8067C13.9867 15.6925 14.255 15.2375 14.14 14.7925C13.6742 12.9817 11.9333 11.6667 10 11.6667C8.06667 11.6667 6.32583 12.9817 5.86 14.7925C5.745 15.2383 6.01333 15.6925 6.45917 15.8067C6.90667 15.9217 7.35917 15.6533 7.47333 15.2075C7.74833 14.1392 8.83417 13.3333 10 13.3333C11.1658 13.3333 12.2517 14.1392 12.5267 15.2075C12.6233 15.5842 12.9617 15.8333 13.3333 15.8333C13.4017 15.8333 13.4708 15.825 13.5408 15.8067Z" fill="#9E9FA2"/>
</g>
<defs>
<clipPath id="clip0_706_51657">
<rect width="20" height="20" fill="white"/>
</clipPath>
</defs>
</svg>
