<svg width="20" height="20" viewBox="0 0 20 20" fill="none" xmlns="http://www.w3.org/2000/svg">
<path fill-rule="evenodd" clip-rule="evenodd" d="M9.99996 2.23047C9.23857 2.23047 8.49174 2.43909 7.84058 2.83368L3.67392 5.35868C3.0612 5.72998 2.55456 6.253 2.20295 6.87721C1.85133 7.50143 1.66661 8.20577 1.66663 8.92221V14.1655C1.66663 15.2706 2.10561 16.3304 2.88701 17.1118C3.66842 17.8932 4.72822 18.3322 5.83329 18.3322H14.1666C15.2717 18.3322 16.3315 17.8932 17.1129 17.1118C17.8943 16.3304 18.3333 15.2706 18.3333 14.1655V8.92137C18.3331 8.20511 18.1483 7.50079 17.7967 6.87676C17.4451 6.25274 16.9386 5.72989 16.326 5.35869L12.1593 2.83369C11.5082 2.4391 10.7613 2.23047 9.99996 2.23047ZM8.70434 4.25906C9.09504 4.02231 9.54313 3.89714 9.99996 3.89714C10.4568 3.89714 10.9049 4.02231 11.2956 4.25906L15.4622 6.78406C15.8298 7.00678 16.1337 7.3205 16.3447 7.69491C16.5556 8.06927 16.6665 8.49168 16.6666 8.92137V14.1655C16.6666 14.8286 16.4032 15.4645 15.9344 15.9333C15.4655 16.4021 14.8297 16.6655 14.1666 16.6655H13.3333V14.1655C13.3333 13.2815 12.9821 12.4336 12.357 11.8085C11.7319 11.1834 10.884 10.8322 9.99996 10.8322C9.1159 10.8322 8.26806 11.1834 7.64294 11.8085C7.01781 12.4336 6.66663 13.2815 6.66663 14.1655V16.6655H5.83329C5.17025 16.6655 4.53437 16.4021 4.06553 15.9333C3.59668 15.4645 3.33329 14.8286 3.33329 14.1655V8.92221C3.33328 8.49234 3.44412 8.06972 3.65509 7.69518C3.86605 7.32065 4.17003 7.00684 4.53767 6.78406L8.70434 4.25906ZM11.1785 12.987C11.491 13.2996 11.6666 13.7235 11.6666 14.1655V16.6655H8.33329V14.1655C8.33329 13.7235 8.50889 13.2996 8.82145 12.987C9.13401 12.6745 9.55793 12.4989 9.99996 12.4989C10.442 12.4989 10.8659 12.6745 11.1785 12.987Z" fill="#3B2D53"/>
</svg>
