<svg width="20" height="20" viewBox="0 0 20 20" fill="none" xmlns="http://www.w3.org/2000/svg">
<g clip-path="url(#clip0_706_51684)">
<path d="M10.8333 5.83333C11.2933 5.83333 11.6667 6.20583 11.6667 6.66667C11.6667 7.1275 11.2933 7.5 10.8333 7.5H4.16667C3.70667 7.5 3.33333 7.1275 3.33333 6.66667C3.33333 6.20583 3.70667 5.83333 4.16667 5.83333H10.8333ZM19.6933 17.2867C19.5392 17.5542 19.2592 17.7042 18.97 17.7042C18.8292 17.7042 18.6858 17.6683 18.555 17.5925L17.7408 17.1233C17.2367 17.6667 16.58 18.0617 15.8333 18.2325V19.1667C15.8333 19.6275 15.46 20 15 20C14.54 20 14.1667 19.6275 14.1667 19.1667V18.2325C13.42 18.0617 12.7625 17.6675 12.2592 17.1233L11.445 17.5925C11.3142 17.6683 11.1708 17.7042 11.03 17.7042C10.7417 17.7042 10.4608 17.5542 10.3067 17.2867C10.0775 16.8875 10.2142 16.3783 10.6133 16.1492L11.4325 15.6775C11.325 15.3292 11.2508 14.9667 11.2508 14.5833C11.2508 14.2 11.325 13.8375 11.4325 13.4892L10.6133 13.0175C10.2142 12.7883 10.0775 12.2783 10.3067 11.88C10.5367 11.4808 11.0475 11.3442 11.445 11.5742L12.2592 12.0433C12.7633 11.5 13.42 11.105 14.1667 10.9342V10C14.1667 9.53917 14.54 9.16667 15 9.16667C15.46 9.16667 15.8333 9.53917 15.8333 10V10.9342C16.58 11.105 17.2375 11.4992 17.7408 12.0433L18.555 11.5742C18.9533 11.3442 19.4625 11.4817 19.6933 11.88C19.9225 12.2792 19.7858 12.7883 19.3867 13.0175L18.5675 13.4892C18.675 13.8375 18.7492 14.2 18.7492 14.5833C18.7492 14.9667 18.675 15.3292 18.5675 15.6775L19.3867 16.1492C19.7858 16.3783 19.9225 16.8883 19.6933 17.2867ZM17.0833 14.5833C17.0833 13.4342 16.1483 12.5 15 12.5C13.8517 12.5 12.9167 13.4342 12.9167 14.5833C12.9167 15.7325 13.8517 16.6667 15 16.6667C16.1483 16.6667 17.0833 15.7325 17.0833 14.5833ZM9.16667 18.3333H4.16667C2.78833 18.3333 1.66667 17.2117 1.66667 15.8333V5.83333C1.66667 4.455 2.78833 3.33333 4.16667 3.33333H5C5.46 3.33333 5.83333 2.96083 5.83333 2.5C5.83333 2.03917 6.2075 1.66667 6.66667 1.66667H8.33333C8.7925 1.66667 9.16667 2.04 9.16667 2.5C9.16667 2.96 9.54 3.33333 10 3.33333H10.8333C12.2117 3.33333 13.3333 4.455 13.3333 5.83333V6.66667C13.3333 7.1275 13.7067 7.5 14.1667 7.5C14.6267 7.5 15 7.1275 15 6.66667V5.83333C15 3.53583 13.1308 1.66667 10.8333 1.66667H10.6908C10.3467 0.696667 9.42 0 8.33333 0H6.66667C5.58 0 4.65333 0.696667 4.30917 1.66667H4.16667C1.86917 1.66667 0 3.53583 0 5.83333V15.8333C0 18.1308 1.86917 20 4.16667 20H9.16667C9.62667 20 10 19.6275 10 19.1667C10 18.7058 9.62667 18.3333 9.16667 18.3333ZM9.16667 9.16667H4.16667C3.70667 9.16667 3.33333 9.53917 3.33333 10C3.33333 10.4608 3.70667 10.8333 4.16667 10.8333H9.16667C9.62667 10.8333 10 10.4608 10 10C10 9.53917 9.62667 9.16667 9.16667 9.16667ZM7.5 14.1667C7.96 14.1667 8.33333 13.7942 8.33333 13.3333C8.33333 12.8725 7.96 12.5 7.5 12.5H4.16667C3.70667 12.5 3.33333 12.8725 3.33333 13.3333C3.33333 13.7942 3.70667 14.1667 4.16667 14.1667H7.5Z" fill="#9E9FA2"/>
</g>
<defs>
<clipPath id="clip0_706_51684">
<rect width="20" height="20" fill="white"/>
</clipPath>
</defs>
</svg>
