<svg width="20" height="20" viewBox="0 0 20 20" fill="none" xmlns="http://www.w3.org/2000/svg">
<path d="M-0.833374 16.6667V15C1.37829 15 2.49996 13.0375 2.49996 9.16667C2.49996 8.83917 2.52746 8.51167 2.58163 8.19417L4.22496 8.47333C4.18663 8.69917 4.16746 8.9325 4.16746 9.1675C4.16746 14.0042 2.39163 16.6675 -0.832541 16.6675L-0.833374 16.6667ZM0.833293 9.16667C0.833293 5.03167 4.19829 1.66667 8.33329 1.66667C9.96913 1.66667 11.525 2.18667 12.8325 3.17L13.8341 1.8375C12.2358 0.635833 10.3341 0 8.33329 0C3.27913 0 -0.833374 4.1125 -0.833374 9.16667V11.6667H0.833293V9.16667ZM10.8333 9.16667C10.8333 7.78833 9.71163 6.66667 8.33329 6.66667C6.95496 6.66667 5.83329 7.78833 5.83329 9.16667L5.82746 10.0633C5.82746 13.555 5.36663 16.8167 -0.198374 18.3417L0.241626 19.95C7.49413 17.9617 7.49413 12.8242 7.49413 10.0642L7.49996 9.1675C7.49996 8.70833 7.87413 8.33417 8.33329 8.33417C8.79246 8.33417 9.16663 8.70833 9.16663 9.1675H10.8333V9.16667ZM17.5 9.2325C17.5 9.21167 17.5 9.18667 17.5 9.16667C17.5 7.7675 17.1916 6.42333 16.5825 5.17167L15.0833 5.90083C15.4891 6.735 15.7225 7.62333 15.7983 8.5425C16.4025 8.695 16.9733 8.9275 17.5 9.23167V9.2325ZM6.09329 18.7467L7.24163 19.9542C7.70662 19.5125 8.12163 19.0217 8.49663 18.4925C8.14246 17.9192 7.87496 17.29 7.70663 16.6192C7.26663 17.43 6.72996 18.1417 6.09329 18.7467ZM8.33329 3.33333C6.67913 3.33333 5.09579 4.04167 3.98913 5.2775L5.23079 6.38917C6.02163 5.50667 7.15329 5 8.33413 5C10.4266 5 12.1466 6.555 12.44 8.5675C12.9708 8.425 13.5266 8.3425 14.1008 8.33667C13.6958 5.51333 11.2675 3.33333 8.33329 3.33333ZM14.1666 10C11.405 10 9.16663 12.2383 9.16663 15C9.16663 17.7617 11.405 20 14.1666 20C16.9283 20 19.1666 17.7617 19.1666 15C19.1666 12.2383 16.9283 10 14.1666 10ZM14.6825 17.0117C14.3675 17.3267 13.9491 17.5 13.5041 17.5H13.5025C13.0575 17.5 12.6391 17.3258 12.325 17.0108L10.6483 15.3342L11.8266 14.1558L13.5041 15.8333L16.5166 12.8208L17.695 13.9992L14.6825 17.0117Z" fill="#9E9FA2"/>
</svg>
