<svg width="20" height="20" viewBox="0 0 20 20" fill="none" xmlns="http://www.w3.org/2000/svg">
<path d="M7.49996 14.1667V15.8333C7.49996 16.2933 7.12663 16.6667 6.66663 16.6667C6.20663 16.6667 5.83329 16.2933 5.83329 15.8333V14.1667C5.83329 13.7067 6.20663 13.3333 6.66663 13.3333C7.12663 13.3333 7.49996 13.7067 7.49996 14.1667ZM13.3333 11.6667C12.8725 11.6667 12.5 12.04 12.5 12.5V15.8333C12.5 16.2933 12.8725 16.6667 13.3333 16.6667C13.7941 16.6667 14.1666 16.2933 14.1666 15.8333V12.5C14.1666 12.04 13.7941 11.6667 13.3333 11.6667ZM9.99996 9.16667C9.53996 9.16667 9.16663 9.54 9.16663 10V15.8333C9.16663 16.2933 9.53996 16.6667 9.99996 16.6667C10.46 16.6667 10.8333 16.2933 10.8333 15.8333V10C10.8333 9.54 10.46 9.16667 9.99996 9.16667ZM18.3333 8.7375V15.8333C18.3333 18.1308 16.4641 20 14.1666 20H5.83329C3.53579 20 1.66663 18.1308 1.66663 15.8333V4.16667C1.66663 1.86917 3.53579 0 5.83329 0H9.59579C11.1533 0 12.6183 0.606667 13.7208 1.70833L16.6241 4.61333C17.7258 5.71417 18.3333 7.17917 18.3333 8.73833V8.7375ZM12.5425 2.88667C12.2775 2.62167 11.9833 2.3975 11.6666 2.21583V5.83333C11.6666 6.2925 12.04 6.66667 12.5 6.66667H16.1175C15.9358 6.35083 15.7108 6.05667 15.4466 5.79167L12.5433 2.88667H12.5425ZM16.6666 8.7375C16.6666 8.60167 16.66 8.46667 16.6475 8.33333H12.5C11.1216 8.33333 9.99996 7.21167 9.99996 5.83333V1.68583C9.86663 1.67333 9.73163 1.66667 9.59579 1.66667H5.83329C4.45496 1.66667 3.33329 2.78833 3.33329 4.16667V15.8333C3.33329 17.2117 4.45496 18.3333 5.83329 18.3333H14.1666C15.545 18.3333 16.6666 17.2117 16.6666 15.8333V8.7375Z" fill="#9E9FA2"/>
</svg>
