<svg width="20" height="20" viewBox="0 0 20 20" fill="none" xmlns="http://www.w3.org/2000/svg">
<g clip-path="url(#clip0_706_51744)">
<path d="M13.3334 19.1667C13.3334 19.6267 12.9609 20 12.5 20H5.00004C2.70254 20 0.833374 18.1308 0.833374 15.8333V4.16667C0.833374 1.86917 2.70254 0 5.00004 0H8.76254C10.32 0 11.785 0.606667 12.8875 1.70833L15.7909 4.61333C16.0167 4.83917 16.2267 5.08667 16.4142 5.34917C16.6817 5.72333 16.595 6.24417 16.2209 6.51167C15.8467 6.77833 15.325 6.6925 15.0584 6.3175C14.9242 6.13 14.7742 5.9525 14.6134 5.7925L11.7092 2.8875C11.4442 2.6225 11.15 2.39833 10.8334 2.21667V5.83333C10.8334 6.2925 11.2067 6.66667 11.6667 6.66667H14.1667C14.6275 6.66667 15 7.04 15 7.5C15 7.96 14.6275 8.33333 14.1667 8.33333H11.6667C10.2884 8.33333 9.16671 7.21167 9.16671 5.83333V1.68583C9.03337 1.67333 8.89838 1.66667 8.76254 1.66667H5.00004C3.62171 1.66667 2.50004 2.78833 2.50004 4.16667V15.8333C2.50004 17.2117 3.62171 18.3333 5.00004 18.3333H12.5C12.9609 18.3333 13.3334 18.7067 13.3334 19.1667ZM18.0709 13.5558L15.5367 13.1333C15.2259 13.0817 15 12.815 15 12.5C15 12.0408 15.3734 11.6667 15.8334 11.6667H17.7234C18.02 11.6667 18.2967 11.8267 18.4459 12.0833C18.675 12.4817 19.1834 12.6175 19.5842 12.3875C19.9825 12.1567 20.1192 11.6475 19.8875 11.2492C19.4425 10.4783 18.6125 9.99917 17.7225 9.99917H17.4992V9.16583C17.4992 8.70583 17.1267 8.3325 16.6659 8.3325C16.205 8.3325 15.8325 8.70583 15.8325 9.16583V9.99917C14.4542 9.99917 13.3325 11.1208 13.3325 12.4992C13.3325 13.6325 14.1442 14.5908 15.2617 14.7767L17.7959 15.1992C18.1067 15.2508 18.3325 15.5175 18.3325 15.8325C18.3325 16.2917 17.9592 16.6658 17.4992 16.6658H15.6092C15.3125 16.6658 15.0359 16.5058 14.8867 16.2492C14.6575 15.85 14.1484 15.7142 13.7484 15.945C13.35 16.1758 13.2134 16.685 13.445 17.0833C13.89 17.8542 14.72 18.3325 15.61 18.3325H15.8334V19.1658C15.8334 19.6258 16.2059 19.9992 16.6667 19.9992C17.1275 19.9992 17.5 19.6258 17.5 19.1658V18.3325C18.8784 18.3325 20 17.2108 20 15.8325C20 14.6992 19.1884 13.7417 18.0709 13.5558ZM6.25004 12.5H10.8334C11.2942 12.5 11.6667 12.1267 11.6667 11.6667C11.6667 11.2067 11.2942 10.8333 10.8334 10.8333H6.25004C5.10171 10.8333 4.16671 11.7683 4.16671 12.9167V14.5833C4.16671 15.7317 5.10171 16.6667 6.25004 16.6667H10.8334C11.2942 16.6667 11.6667 16.2933 11.6667 15.8333C11.6667 15.3733 11.2942 15 10.8334 15H6.25004C6.02004 15 5.83337 14.8133 5.83337 14.5833V12.9167C5.83337 12.6867 6.02004 12.5 6.25004 12.5ZM5.00004 9.16667H6.66671C7.12671 9.16667 7.50004 8.79333 7.50004 8.33333C7.50004 7.87333 7.12671 7.5 6.66671 7.5H5.00004C4.54004 7.5 4.16671 7.87333 4.16671 8.33333C4.16671 8.79333 4.54004 9.16667 5.00004 9.16667ZM5.00004 5.83333H6.66671C7.12671 5.83333 7.50004 5.46 7.50004 5C7.50004 4.54 7.12671 4.16667 6.66671 4.16667H5.00004C4.54004 4.16667 4.16671 4.54 4.16671 5C4.16671 5.46 4.54004 5.83333 5.00004 5.83333Z" fill="#9E9FA2"/>
</g>
<defs>
<clipPath id="clip0_706_51744">
<rect width="20" height="20" fill="white"/>
</clipPath>
</defs>
</svg>
