<svg width="20" height="20" viewBox="0 0 20 20" fill="none" xmlns="http://www.w3.org/2000/svg">
<g clip-path="url(#clip0_706_51699)">
<path d="M8.52831 8.55662C9.33915 9.35078 10.6608 9.34995 11.4708 8.55662C12.6925 7.41578 14.29 6.00995 14.1658 4.16745C14.2125 1.92745 12.2383 -0.0450501 9.99915 0.000783187C7.75998 -0.0450501 5.78581 1.92745 5.83248 4.16745C5.70581 5.99662 7.30748 7.41912 8.52748 8.55662H8.52831ZM8.23248 2.39995C8.70415 1.92745 9.33248 1.66745 9.99998 1.66745C11.3433 1.63995 12.5275 2.82328 12.5 4.16745C12.6208 5.47328 11.09 6.54328 10.3058 7.36495C10.1366 7.52995 9.86331 7.52995 9.69415 7.36495C8.90665 6.54078 7.38165 5.46828 7.49998 4.16745C7.49998 3.49912 7.75998 2.87162 8.23248 2.39995ZM8.74998 4.16745C8.74998 3.47745 9.30998 2.91745 9.99998 2.91745C10.69 2.91745 11.25 3.47745 11.25 4.16745C11.25 4.85745 10.69 5.41745 9.99998 5.41745C9.30998 5.41745 8.74998 4.85745 8.74998 4.16745ZM9.99998 10.8341C10.4608 10.8341 10.8333 11.2066 10.8333 11.6674V13.3341C10.8333 13.795 10.4608 14.1675 9.99998 14.1675C9.53915 14.1675 9.16665 13.795 9.16665 13.3341V11.6674C9.16665 11.2066 9.53915 10.8341 9.99998 10.8341ZM19.0233 18.5133C18.23 19.4591 17.0666 20.0008 15.8325 20.0008H4.16748C2.93415 20.0008 1.77165 19.4591 0.978315 18.5149C0.184148 17.57 -0.150018 16.3316 0.0624816 15.1166L1.22998 8.44912C1.48331 6.99995 2.49748 5.77912 3.87498 5.26412C4.30915 5.10245 4.78665 5.32162 4.94748 5.75245C5.10831 6.18328 4.88998 6.66328 4.45915 6.82495C3.63248 7.13412 3.02331 7.86662 2.87248 8.73578L1.70581 15.4033C1.57831 16.1316 1.77831 16.8758 2.25415 17.4416C2.73081 18.0091 3.42831 18.3333 4.16831 18.3333H9.16748V16.6666C9.16748 16.2058 9.53998 15.8333 10.0008 15.8333C10.4616 15.8333 10.8341 16.2058 10.8341 16.6666V18.3333H15.8333C16.5741 18.3333 17.2725 18.0075 17.7483 17.4408C18.2241 16.8741 18.4241 16.13 18.295 15.4L17.1225 8.73412C16.97 7.86745 16.3641 7.13662 15.5408 6.82662C15.11 6.66412 14.8925 6.18412 15.055 5.75328C15.2166 5.32162 15.6975 5.10578 16.1283 5.26662C17.5 5.78328 18.51 7.00162 18.765 8.44495L19.9375 15.1116C20.1508 16.3274 19.8183 17.5666 19.0241 18.5125L19.0233 18.5133Z" fill="#9E9FA2"/>
</g>
<defs>
<clipPath id="clip0_706_51699">
<rect width="20" height="20" fill="white"/>
</clipPath>
</defs>
</svg>
