<svg width="20" height="20" viewBox="0 0 20 20" fill="none" xmlns="http://www.w3.org/2000/svg">
<g clip-path="url(#clip0_706_51644)">
<path d="M19.7558 18.5768L14.7816 13.6027C16.1371 11.9448 16.8036 9.82941 16.6431 7.69396C16.4827 5.55852 15.5076 3.56644 13.9196 2.12976C12.3316 0.693089 10.2521 -0.0782598 8.11131 -0.0247333C5.97052 0.0287933 3.93219 0.903099 2.41795 2.41734C0.90371 3.93158 0.0294036 5.96991 -0.0241229 8.1107C-0.0776494 10.2515 0.693699 12.331 2.13037 13.919C3.56705 15.507 5.55913 16.4821 7.69457 16.6425C9.83002 16.803 11.9454 16.1365 13.6033 14.781L18.5774 19.7552C18.7346 19.907 18.9451 19.991 19.1636 19.9891C19.3821 19.9872 19.5911 19.8995 19.7456 19.745C19.9001 19.5905 19.9878 19.3815 19.9897 19.163C19.9916 18.9445 19.9076 18.734 19.7558 18.5768ZM8.33327 14.9993C7.01473 14.9993 5.7258 14.6083 4.62947 13.8758C3.53314 13.1433 2.67866 12.1021 2.17408 10.8839C1.66949 9.66571 1.53747 8.32527 1.7947 7.03206C2.05194 5.73885 2.68688 4.55097 3.61923 3.61862C4.55158 2.68627 5.73947 2.05133 7.03267 1.79409C8.32588 1.53686 9.66632 1.66888 10.8845 2.17347C12.1027 2.67805 13.1439 3.53253 13.8764 4.62886C14.6089 5.72519 14.9999 7.01412 14.9999 8.33266C14.998 10.1002 14.2949 11.7947 13.0451 13.0445C11.7953 14.2943 10.1008 14.9973 8.33327 14.9993Z" fill="#9E9FA2"/>
<path d="M10.8333 7.5H5.83333C5.61232 7.5 5.40036 7.5878 5.24408 7.74408C5.0878 7.90036 5 8.11232 5 8.33333C5 8.55435 5.0878 8.76631 5.24408 8.92259C5.40036 9.07887 5.61232 9.16667 5.83333 9.16667H10.8333C11.0543 9.16667 11.2663 9.07887 11.4226 8.92259C11.5789 8.76631 11.6667 8.55435 11.6667 8.33333C11.6667 8.11232 11.5789 7.90036 11.4226 7.74408C11.2663 7.5878 11.0543 7.5 10.8333 7.5Z" fill="#9E9FA2"/>
</g>
<defs>
<clipPath id="clip0_706_51644">
<rect width="20" height="20" fill="white"/>
</clipPath>
</defs>
</svg>
