<svg width="20" height="20" viewBox="0 0 20 20" fill="none" xmlns="http://www.w3.org/2000/svg">
<g clip-path="url(#clip0_706_51689)">
<path d="M12.5 5C12.5 2.2425 10.2575 0 7.49998 0C4.74248 0 2.49998 2.2425 2.49998 5C2.49998 7.7575 4.74248 10 7.49998 10C10.2575 10 12.5 7.7575 12.5 5ZM7.49998 8.33333C5.66165 8.33333 4.16665 6.83833 4.16665 5C4.16665 3.16167 5.66165 1.66667 7.49998 1.66667C9.33831 1.66667 10.8333 3.16167 10.8333 5C10.8333 6.83833 9.33831 8.33333 7.49998 8.33333ZM7.49331 12.4483C7.54998 12.905 7.22665 13.3208 6.76915 13.3783C3.85998 13.7417 1.66581 16.2292 1.66581 19.1667C1.66581 19.6267 1.29248 20 0.832479 20C0.372479 20 -0.000854492 19.6267 -0.000854492 19.1667C-0.000854492 15.3908 2.82081 12.1917 6.56248 11.725C7.01415 11.6675 7.43498 11.9917 7.49248 12.4492L7.49331 12.4483ZM18.9133 15.9442L18.1016 15.4758C18.24 15.0617 18.3333 14.6267 18.3333 14.1658C18.3333 13.705 18.2408 13.27 18.1016 12.8558L18.9133 12.3875C19.3116 12.1575 19.4483 11.6475 19.2183 11.2492C18.9875 10.85 18.4791 10.7125 18.08 10.9442L17.2691 11.4125C16.6816 10.7508 15.8991 10.2667 15 10.0842V9.16667C15 8.70667 14.6266 8.33333 14.1666 8.33333C13.7066 8.33333 13.3333 8.70667 13.3333 9.16667V10.0842C12.4341 10.2675 11.6516 10.7517 11.0641 11.4125L10.2533 10.9442C9.85331 10.7133 9.34498 10.85 9.11498 11.2492C8.88498 11.6483 9.02165 12.1575 9.41998 12.3875L10.2316 12.8558C10.0933 13.27 9.99998 13.705 9.99998 14.1658C9.99998 14.6267 10.0925 15.0617 10.2316 15.4758L9.41998 15.9442C9.02165 16.1742 8.88498 16.6842 9.11498 17.0825C9.26998 17.35 9.54915 17.4992 9.83748 17.4992C9.97831 17.4992 10.1216 17.4633 10.2533 17.3875L11.0641 16.9192C11.6516 17.5808 12.4341 18.065 13.3333 18.2475V19.165C13.3333 19.625 13.7066 19.9983 14.1666 19.9983C14.6266 19.9983 15 19.625 15 19.165V18.2475C15.8991 18.0642 16.6816 17.58 17.2691 16.9192L18.08 17.3875C18.2116 17.4633 18.355 17.4992 18.4958 17.4992C18.7841 17.4992 19.0641 17.35 19.2183 17.0825C19.4483 16.6833 19.3116 16.1742 18.9133 15.9442ZM14.1666 16.6658C12.7883 16.6658 11.6666 15.5442 11.6666 14.1658C11.6666 12.7875 12.7883 11.6658 14.1666 11.6658C15.545 11.6658 16.6666 12.7875 16.6666 14.1658C16.6666 15.5442 15.545 16.6658 14.1666 16.6658Z" fill="#9E9FA2"/>
</g>
<defs>
<clipPath id="clip0_706_51689">
<rect width="20" height="20" fill="white"/>
</clipPath>
</defs>
</svg>
