<svg width="20" height="20" viewBox="0 0 20 20" fill="none" xmlns="http://www.w3.org/2000/svg">
<g clip-path="url(#clip0_706_51733)">
<path fill-rule="evenodd" clip-rule="evenodd" d="M10 6.66732C9.11599 6.66732 8.26814 7.01851 7.64302 7.64363C7.0179 8.26875 6.66671 9.1166 6.66671 10.0007C6.66671 10.8847 7.0179 11.7326 7.64302 12.3577C8.26814 12.9828 9.11599 13.334 10 13.334C10.8841 13.334 11.7319 12.9828 12.3571 12.3577C12.9822 11.7326 13.3334 10.8847 13.3334 10.0007C13.3334 9.1166 12.9822 8.26875 12.3571 7.64363C11.7319 7.01851 10.8841 6.66732 10 6.66732ZM8.82153 8.82214C9.13409 8.50958 9.55801 8.33398 10 8.33398C10.4421 8.33398 10.866 8.50958 11.1786 8.82214C11.4911 9.1347 11.6667 9.55862 11.6667 10.0007C11.6667 10.4427 11.4911 10.8666 11.1786 11.1792C10.866 11.4917 10.4421 11.6673 10 11.6673C9.55801 11.6673 9.13409 11.4917 8.82153 11.1792C8.50897 10.8666 8.33337 10.4427 8.33337 10.0007C8.33337 9.55862 8.50897 9.1347 8.82153 8.82214Z" fill="#9E9FA2"/>
<path fill-rule="evenodd" clip-rule="evenodd" d="M9.15087 0.833984C8.77233 0.833984 8.44135 1.08912 8.34499 1.45519L7.92269 3.05952L6.58099 3.62512L5.55395 2.71139C5.22419 2.41801 4.72288 2.43263 4.41078 2.74473L2.74412 4.4114C2.4422 4.71331 2.41733 5.19459 2.68651 5.52602L3.58662 6.63428L3.03466 7.99221L1.47725 8.35581C1.10014 8.44385 0.833374 8.78007 0.833374 9.16732V10.834C0.833374 11.2098 1.08486 11.539 1.44739 11.6379L3.05712 12.0771L3.62424 13.4224L2.71142 14.446C2.41741 14.7757 2.43176 15.2775 2.74412 15.5899L4.41078 17.2566C4.71311 17.5589 5.19519 17.5834 5.52658 17.3132L6.63444 16.4101L7.959 16.955L8.35873 18.538C8.45217 18.908 8.78505 19.1673 9.16671 19.1673H10.8334C11.2149 19.1673 11.5477 18.9083 11.6412 18.5384L12.042 16.9547L13.4108 16.3877C13.5486 16.5032 13.7066 16.6389 13.8638 16.7758C14.0201 16.9118 14.1653 17.04 14.2715 17.1343C14.3246 17.1814 14.3678 17.2199 14.3977 17.2466L14.4429 17.287C14.7725 17.5827 15.2763 17.5696 15.5893 17.2566L17.256 15.5899C17.5627 15.2832 17.5828 14.7925 17.3023 14.4617L16.3945 13.3912L16.9562 12.0345L18.543 11.6222C18.9103 11.5268 19.1667 11.1952 19.1667 10.8156V9.16732C19.1667 8.78622 18.9082 8.45368 18.5388 8.35971L16.9619 7.95852L16.4017 6.6051L17.3031 5.53861C17.5828 5.20773 17.5623 4.71774 17.256 4.4114L15.5893 2.74473C15.2817 2.43713 14.7893 2.41788 14.4586 2.70052L13.4 3.60538L11.9989 3.02931L11.5852 1.45546C11.4889 1.08926 11.1578 0.833984 10.7792 0.833984H9.15087ZM15.5347 14.9542L14.9646 15.5243L14.9583 15.5188C14.6506 15.2509 14.2541 14.9118 14.0305 14.7519C13.7965 14.5846 13.4928 14.5498 13.227 14.6599L11.0178 15.5749C10.7747 15.6756 10.5934 15.8853 10.5288 16.1404L10.1846 17.5006H9.81577L9.47218 16.14C9.40754 15.884 9.22541 15.6738 8.98123 15.5733L6.80956 14.68C6.52678 14.5637 6.203 14.6115 5.966 14.8047L5.05699 15.5458L4.47913 14.9679L5.21866 14.1386C5.43275 13.8985 5.48955 13.5567 5.3646 13.2603L4.43543 11.0561C4.33602 10.8203 4.13376 10.6432 3.88686 10.5759L2.50004 10.1975V9.82851L3.83366 9.51716C4.09712 9.45566 4.31433 9.27008 4.4162 9.01945L5.3162 6.80528C5.43067 6.52367 5.38271 6.20207 5.19107 5.96611L4.45397 5.05856L5.03344 4.47909L5.86613 5.21992C6.10619 5.43349 6.44766 5.49002 6.74375 5.36521L8.94791 4.43604C9.18615 4.33562 9.36428 4.1303 9.43009 3.88028L9.79324 2.50065H10.1366L10.4924 3.85418C10.5588 4.10682 10.7399 4.31371 10.9815 4.41305L13.2373 5.34055C13.5265 5.45946 13.858 5.40645 14.0957 5.20328L14.9557 4.46815L15.5355 5.04799L14.8011 5.91686C14.5998 6.15496 14.5483 6.48549 14.6676 6.77355L15.5817 8.98189C15.6823 9.22475 15.8915 9.40595 16.1462 9.47076L17.5 9.81518V10.1712L16.1355 10.5258C15.8825 10.5915 15.6751 10.7721 15.5751 11.0135L14.6601 13.2235C14.5406 13.512 14.5925 13.8431 14.7945 14.0813L15.5347 14.9542Z" fill="#9E9FA2"/>
</g>
<defs>
<clipPath id="clip0_706_51733">
<rect width="20" height="20" fill="white"/>
</clipPath>
</defs>
</svg>
