<svg width="24" height="24" viewBox="0 0 24 24" fill="none" xmlns="http://www.w3.org/2000/svg">
<g clip-path="url(#clip0_706_51694)">
<path d="M3 22H8V24H3C1.346 24 0 22.654 0 21V16H2V21C2 21.552 2.448 22 3 22ZM22 21C22 21.552 21.552 22 21 22H16V24H21C22.654 24 24 22.654 24 21V16H22V21ZM21 0H16V2H21C21.552 2 22 2.448 22 3V8H24V3C24 1.346 22.654 0 21 0ZM2 3C2 2.448 2.448 2 3 2H8V0H3C1.346 0 0 1.346 0 3V8H2V3ZM8.5 7H8.964L10.294 5H13.706L15.036 7H15.5C16.879 7 18 8.121 18 9.5V17H6V9.5C6 8.121 7.121 7 8.5 7ZM14 12C14 10.895 13.105 10 12 10C10.895 10 10 10.895 10 12C10 13.105 10.895 14 12 14C13.105 14 14 13.105 14 12Z" fill="#9E9FA2"/>
</g>
<defs>
<clipPath id="clip0_706_51694">
<rect width="24" height="24" fill="white"/>
</clipPath>
</defs>
</svg>
