<svg width="20" height="20" viewBox="0 0 20 20" fill="none" xmlns="http://www.w3.org/2000/svg">
<path d="M15.8333 18.3327H4.16667C1.86917 18.3327 0 16.4635 0 14.166V5.83268C0 3.53518 1.86917 1.66602 4.16667 1.66602H15.8333C18.1308 1.66602 20 3.53518 20 5.83268V14.166C20 16.4635 18.1308 18.3327 15.8333 18.3327ZM4.16667 3.33268C2.78833 3.33268 1.66667 4.45435 1.66667 5.83268V14.166C1.66667 15.5443 2.78833 16.666 4.16667 16.666H15.8333C17.2117 16.666 18.3333 15.5443 18.3333 14.166V5.83268C18.3333 4.45435 17.2117 3.33268 15.8333 3.33268H4.16667ZM15 10.8327H11.6667C10.7475 10.8327 10 10.0852 10 9.16602V7.49935C10 6.58018 10.7475 5.83268 11.6667 5.83268H15C15.9192 5.83268 16.6667 6.58018 16.6667 7.49935V9.16602C16.6667 10.0852 15.9192 10.8327 15 10.8327ZM11.6667 7.49935V9.16602H15.0008V7.49935H11.6667ZM8.33333 9.99935C8.33333 9.53935 7.96 9.16602 7.5 9.16602H4.16667C3.70667 9.16602 3.33333 9.53935 3.33333 9.99935C3.33333 10.4593 3.70667 10.8327 4.16667 10.8327H7.5C7.96 10.8327 8.33333 10.4593 8.33333 9.99935ZM16.6667 13.3327C16.6667 12.8727 16.2933 12.4993 15.8333 12.4993H4.16667C3.70667 12.4993 3.33333 12.8727 3.33333 13.3327C3.33333 13.7927 3.70667 14.166 4.16667 14.166H15.8333C16.2933 14.166 16.6667 13.7927 16.6667 13.3327Z" fill="#9E9FA2"/>
</svg>
