<svg width="32" height="32" viewBox="0 0 32 32" fill="none" xmlns="http://www.w3.org/2000/svg">
<path d="M25.3333 25.332H6.66667V10.6654H25.3333M21.3333 1.33203V3.9987H10.6667V1.33203H8V3.9987H6.66667C5.18667 3.9987 4 5.18536 4 6.66536V25.332C4 26.0393 4.28095 26.7176 4.78105 27.2176C5.28115 27.7177 5.95942 27.9987 6.66667 27.9987H25.3333C26.0406 27.9987 26.7189 27.7177 27.219 27.2176C27.719 26.7176 28 26.0393 28 25.332V6.66536C28 5.95812 27.719 5.27984 27.219 4.77975C26.7189 4.27965 26.0406 3.9987 25.3333 3.9987H24V1.33203M22.6667 15.9987H16V22.6654H22.6667V15.9987Z" fill="url(#paint0_linear_354_5257)"/>
<defs>
<linearGradient id="paint0_linear_354_5257" x1="9.7096" y1="4.87603" x2="23.8731" y2="25.2324" gradientUnits="userSpaceOnUse">
<stop offset="0.125" stop-color="#9C6CFE"/>
<stop offset="1" stop-color="#7A41DC"/>
</linearGradient>
</defs>
</svg>
