<svg width="32" height="32" viewBox="0 0 32 32" fill="none" xmlns="http://www.w3.org/2000/svg">
<mask id="mask0_354_5259" style="mask-type:luminance" maskUnits="userSpaceOnUse" x="2" y="5" width="28" height="22">
<path d="M18.6667 5.33203H13.3333C8.30534 5.33203 5.79067 5.33203 4.22934 6.8947C3.104 8.0187 2.78934 9.63736 2.70134 12.332H29.2987C29.2107 9.63736 28.896 8.0187 27.7707 6.8947C26.2093 5.33203 23.6947 5.33203 18.6667 5.33203ZM13.3333 26.6654H18.6667C23.6947 26.6654 26.2093 26.6654 27.7707 25.1027C29.332 23.54 29.3333 21.0267 29.3333 15.9987C29.3333 15.4103 29.3324 14.8547 29.3307 14.332H2.66934C2.66667 14.8547 2.66578 15.4103 2.66667 15.9987C2.66667 21.0267 2.66667 23.5414 4.22934 25.1027C5.792 26.664 8.30534 26.6654 13.3333 26.6654Z" fill="white"/>
<path fill-rule="evenodd" clip-rule="evenodd" d="M7 21.332C7 21.0668 7.10536 20.8125 7.29289 20.6249C7.48043 20.4374 7.73478 20.332 8 20.332H13.3333C13.5985 20.332 13.8529 20.4374 14.0404 20.6249C14.228 20.8125 14.3333 21.0668 14.3333 21.332C14.3333 21.5972 14.228 21.8516 14.0404 22.0391C13.8529 22.2267 13.5985 22.332 13.3333 22.332H8C7.73478 22.332 7.48043 22.2267 7.29289 22.0391C7.10536 21.8516 7 21.5972 7 21.332ZM15.6667 21.332C15.6667 21.0668 15.772 20.8125 15.9596 20.6249C16.1471 20.4374 16.4015 20.332 16.6667 20.332H18.6667C18.9319 20.332 19.1862 20.4374 19.3738 20.6249C19.5613 20.8125 19.6667 21.0668 19.6667 21.332C19.6667 21.5972 19.5613 21.8516 19.3738 22.0391C19.1862 22.2267 18.9319 22.332 18.6667 22.332H16.6667C16.4015 22.332 16.1471 22.2267 15.9596 22.0391C15.772 21.8516 15.6667 21.5972 15.6667 21.332Z" fill="black"/>
</mask>
<g mask="url(#mask0_354_5259)">
<path d="M0 0H32V32H0V0Z" fill="url(#paint0_linear_354_5259)"/>
</g>
<defs>
<linearGradient id="paint0_linear_354_5259" x1="7.6128" y1="4.2528" x2="23.92" y2="30.2944" gradientUnits="userSpaceOnUse">
<stop offset="0.125" stop-color="#9C6CFE"/>
<stop offset="1" stop-color="#7A41DC"/>
</linearGradient>
</defs>
</svg>
