<svg width="40" height="40" viewBox="0 0 40 40" fill="none" xmlns="http://www.w3.org/2000/svg">
<circle opacity="0.9" cx="19.6587" cy="20.0575" r="19.3602" fill="#4F46E5" fill-opacity="0.1"/>
<path d="M20.0749 10.2246C21.3791 10.2246 22.6299 10.7427 23.5522 11.665C24.4744 12.5872 24.9925 13.838 24.9925 15.1423C24.9925 16.4465 24.4744 17.6973 23.5522 18.6196C22.6299 19.5418 21.3791 20.0599 20.0749 20.0599C18.7706 20.0599 17.5198 19.5418 16.5976 18.6196C15.6753 17.6973 15.1572 16.4465 15.1572 15.1423C15.1572 13.838 15.6753 12.5872 16.5976 11.665C17.5198 10.7427 18.7706 10.2246 20.0749 10.2246ZM20.0749 22.5187C25.5089 22.5187 29.9102 24.7194 29.9102 27.4364V29.8952H10.2396V27.4364C10.2396 24.7194 14.6409 22.5187 20.0749 22.5187Z" fill="#A37EE6"/>
</svg>
