<svg width="32" height="32" viewBox="0 0 32 32" fill="none" xmlns="http://www.w3.org/2000/svg">
<path d="M22.6667 4.45254C24.6777 5.61368 26.3506 7.27991 27.5198 9.28627C28.6889 11.2926 29.3138 13.5696 29.3326 15.8917C29.3513 18.2137 28.7633 20.5005 27.6267 22.5255C26.4901 24.5505 24.8443 26.2435 22.8523 27.437C20.8603 28.6304 18.5912 29.283 16.2695 29.33C13.9478 29.3769 11.6541 28.8168 9.61543 27.7049C7.57677 26.593 5.86385 24.9679 4.64624 22.9906C3.42864 21.0132 2.74857 18.7522 2.67335 16.4312L2.66669 15.9992L2.67335 15.5672C2.74802 13.2645 3.41808 11.0205 4.61821 9.05386C5.81833 7.08724 7.50756 5.46514 9.52121 4.34572C11.5349 3.22629 13.8042 2.64773 16.108 2.66646C18.4118 2.68518 20.6715 3.30054 22.6667 4.45254ZM16 7.99921C15.6734 7.99925 15.3582 8.11915 15.1142 8.33616C14.8701 8.55317 14.7142 8.8522 14.676 9.17654L14.6667 9.33254V15.9992L14.6787 16.1739C14.7091 16.4052 14.7997 16.6245 14.9414 16.8099L15.0574 16.9432L19.0574 20.9432L19.1827 21.0525C19.4165 21.234 19.7041 21.3324 20 21.3324C20.296 21.3324 20.5835 21.234 20.8174 21.0525L20.9427 20.9419L21.0534 20.8165C21.2348 20.5827 21.3332 20.2952 21.3332 19.9992C21.3332 19.7032 21.2348 19.4157 21.0534 19.1819L20.9427 19.0565L17.3334 15.4459V9.33254L17.324 9.17654C17.2858 8.8522 17.1299 8.55317 16.8858 8.33616C16.6418 8.11915 16.3266 7.99925 16 7.99921Z" fill="url(#paint0_linear_354_5255)"/>
<defs>
<linearGradient id="paint0_linear_354_5255" x1="9.01061" y1="6.21002" x2="22.6" y2="27.9112" gradientUnits="userSpaceOnUse">
<stop offset="0.125" stop-color="#9C6CFE"/>
<stop offset="1" stop-color="#7A41DC"/>
</linearGradient>
</defs>
</svg>
