<svg width="32" height="32" viewBox="0 0 32 32" fill="none" xmlns="http://www.w3.org/2000/svg">
<path fill-rule="evenodd" clip-rule="evenodd" d="M6.66667 2.66797C5.95942 2.66797 5.28115 2.94892 4.78105 3.44902C4.28095 3.94911 4 4.62739 4 5.33464V27.868C4 28.0606 4.03794 28.2513 4.11164 28.4292C4.18535 28.6072 4.29338 28.7689 4.42958 28.9051C4.56577 29.0413 4.72745 29.1493 4.9054 29.223C5.08334 29.2967 5.27406 29.3346 5.46667 29.3346H26.5333C26.7259 29.3346 26.9167 29.2967 27.0946 29.223C27.2725 29.1493 27.4342 29.0413 27.5704 28.9051C27.7066 28.7689 27.8146 28.6072 27.8884 28.4292C27.9621 28.2513 28 28.0606 28 27.868V14.668C28 13.9607 27.719 13.2824 27.219 12.7824C26.7189 12.2823 26.0406 12.0013 25.3333 12.0013H24.6667C24.4899 12.0013 24.3203 12.0715 24.1953 12.1966C24.0702 12.3216 24 12.4912 24 12.668V26.668H22.6667V5.33464C22.6667 4.62739 22.3857 3.94911 21.8856 3.44902C21.3855 2.94892 20.7072 2.66797 20 2.66797H6.66667ZM13.3333 6.66797C12.9797 6.66797 12.6406 6.80844 12.3905 7.05849C12.1405 7.30854 12 7.64768 12 8.0013V9.33463H10.6667C10.313 9.33463 9.97391 9.47511 9.72386 9.72516C9.47381 9.97521 9.33333 10.3143 9.33333 10.668C9.33333 11.0216 9.47381 11.3607 9.72386 11.6108C9.97391 11.8608 10.313 12.0013 10.6667 12.0013H12V13.3346C12 13.6883 12.1405 14.0274 12.3905 14.2774C12.6406 14.5275 12.9797 14.668 13.3333 14.668C13.687 14.668 14.0261 14.5275 14.2761 14.2774C14.5262 14.0274 14.6667 13.6883 14.6667 13.3346V12.0013H16C16.3536 12.0013 16.6928 11.8608 16.9428 11.6108C17.1929 11.3607 17.3333 11.0216 17.3333 10.668C17.3333 10.3143 17.1929 9.97521 16.9428 9.72516C16.6928 9.47511 16.3536 9.33463 16 9.33463H14.6667V8.0013C14.6667 7.64768 14.5262 7.30854 14.2761 7.05849C14.0261 6.80844 13.687 6.66797 13.3333 6.66797ZM13.3333 18.668C12.6261 18.668 11.9478 18.9489 11.4477 19.449C10.9476 19.9491 10.6667 20.6274 10.6667 21.3346V26.668H16V21.3346C16 20.6274 15.719 19.9491 15.219 19.449C14.7189 18.9489 14.0406 18.668 13.3333 18.668Z" fill="url(#paint0_linear_354_5244)"/>
<defs>
<linearGradient id="paint0_linear_354_5244" x1="9.7096" y1="6.21197" x2="23.8731" y2="26.5683" gradientUnits="userSpaceOnUse">
<stop offset="0.125" stop-color="#9C6CFE"/>
<stop offset="1" stop-color="#7A41DC"/>
</linearGradient>
</defs>
</svg>
