<svg width="23" height="25" viewBox="0 0 23 25" fill="none" xmlns="http://www.w3.org/2000/svg">
<path d="M0 6.25V3.75H2.55556V2.5C2.55556 1.83696 2.8248 1.20107 3.30406 0.732233C3.78332 0.263392 4.43334 0 5.11111 0H12.7778V8.75L15.9722 6.875L19.1667 8.75V0H20.4444C21.7861 0 23 1.1875 23 2.5V22.5C23 23.8125 21.7861 25 20.4444 25H5.11111C3.76944 25 2.55556 23.8125 2.55556 22.5V21.25H0V18.75H2.55556V13.75H0V11.25H2.55556V6.25H0ZM5.11111 11.25H2.55556V13.75H5.11111V11.25ZM5.11111 6.25V3.75H2.55556V6.25H5.11111ZM5.11111 21.25V18.75H2.55556V21.25H5.11111Z" fill="url(#paint0_linear_570_232634)"/>
<defs>
<linearGradient id="paint0_linear_570_232634" x1="5.4717" y1="3.3225" x2="18.6461" y2="22.6781" gradientUnits="userSpaceOnUse">
<stop offset="0.125" stop-color="#9C6CFE"/>
<stop offset="1" stop-color="#7A41DC"/>
</linearGradient>
</defs>
</svg>
